<mxfile modified="2024-02-26T01:52:02.748Z" host="app.diagrams.net" agent="Mozilla/5.0 (Macintosh; Intel Mac OS X 10_15_7) AppleWebKit/537.36 (KHTML, like Gecko) Chrome/121.0.0.0 Safari/537.36" etag="ymzbsJC6OAqTObCZTLiu" version="23.1.6" type="device" pages="2">
  <diagram id="V7B4Adpet9uSPmfZ2MFj" name="VPN vs Athena">
    <mxGraphModel dx="1242" dy="-8" grid="0" gridSize="10" guides="1" tooltips="1" connect="1" arrows="1" fold="1" page="1" pageScale="1" pageWidth="1169" pageHeight="827" background="none" math="0" shadow="1">
      <root>
        <mxCell id="0" />
        <mxCell id="1" parent="0" />
        <mxCell id="tuFBvk_88zkTL_cLm5_9-24" value="App" style="points=[[0,0],[0.25,0],[0.5,0],[0.75,0],[1,0],[1,0.25],[1,0.5],[1,0.75],[1,1],[0.75,1],[0.5,1],[0.25,1],[0,1],[0,0.75],[0,0.5],[0,0.25]];outlineConnect=0;gradientColor=none;html=1;whiteSpace=wrap;fontSize=12;fontStyle=0;container=1;pointerEvents=0;collapsible=0;recursiveResize=0;shape=mxgraph.aws4.group;grIcon=mxgraph.aws4.group_aws_cloud_alt;strokeColor=#232F3E;fillColor=none;verticalAlign=top;align=left;spacingLeft=30;fontColor=#232F3E;dashed=0;rounded=1;" parent="1" vertex="1">
          <mxGeometry x="580" y="870" width="150" height="350" as="geometry" />
        </mxCell>
        <mxCell id="deeNJldHTBCf-zLZ4GmC-29" value="" style="sketch=0;outlineConnect=0;fontColor=#232F3E;fillColor=#ED7100;strokeColor=#ffffff;dashed=0;verticalLabelPosition=bottom;verticalAlign=top;align=center;html=1;fontSize=12;fontStyle=0;aspect=fixed;shape=mxgraph.aws4.resourceIcon;resIcon=mxgraph.aws4.lambda;perimeterSpacing=5;points=[[0,0.33,0,0,0],[0,0.67,0,0,0]];rounded=1;" parent="tuFBvk_88zkTL_cLm5_9-24" vertex="1">
          <mxGeometry x="50.5" y="150.5" width="50" height="50" as="geometry" />
        </mxCell>
        <mxCell id="KC3xq8jwCQPXp9tBLLmZ-9" value="5. The protection app is triggered" style="text;strokeColor=none;align=center;fillColor=none;html=1;verticalAlign=middle;whiteSpace=wrap;rounded=1;fontSize=8;" parent="tuFBvk_88zkTL_cLm5_9-24" vertex="1">
          <mxGeometry x="5" y="90" width="60" height="30" as="geometry" />
        </mxCell>
        <mxCell id="KC3xq8jwCQPXp9tBLLmZ-12" value="8. The canary result, approves or denies the deploy" style="text;strokeColor=none;align=center;fillColor=none;html=1;verticalAlign=middle;whiteSpace=wrap;rounded=1;fontSize=8;" parent="tuFBvk_88zkTL_cLm5_9-24" vertex="1">
          <mxGeometry x="5" y="240" width="60" height="30" as="geometry" />
        </mxCell>
        <mxCell id="tuFBvk_88zkTL_cLm5_9-1" value="Github" style="points=[[0,0],[0.25,0],[0.5,0],[0.75,0],[1,0],[1,0.25],[1,0.5],[1,0.75],[1,1],[0.75,1],[0.5,1],[0.25,1],[0,1],[0,0.75],[0,0.5],[0,0.25]];outlineConnect=0;gradientColor=none;html=1;whiteSpace=wrap;fontSize=12;fontStyle=0;container=0;pointerEvents=0;collapsible=0;recursiveResize=0;shape=mxgraph.aws4.group;grIcon=mxgraph.aws4.group_aws_cloud_alt;strokeColor=#232F3E;fillColor=none;verticalAlign=top;align=left;spacingLeft=30;fontColor=#232F3E;dashed=0;rounded=1;" parent="1" vertex="1">
          <mxGeometry x="170" y="870" width="370" height="350" as="geometry" />
        </mxCell>
        <mxCell id="deeNJldHTBCf-zLZ4GmC-5" style="edgeStyle=orthogonalEdgeStyle;rounded=1;orthogonalLoop=1;jettySize=auto;html=1;exitX=1;exitY=0.5;exitDx=0;exitDy=0;" parent="1" source="tuFBvk_88zkTL_cLm5_9-18" target="deeNJldHTBCf-zLZ4GmC-29" edge="1">
          <mxGeometry relative="1" as="geometry">
            <mxPoint x="655.0285714285715" y="1020" as="targetPoint" />
          </mxGeometry>
        </mxCell>
        <mxCell id="deeNJldHTBCf-zLZ4GmC-22" style="edgeStyle=orthogonalEdgeStyle;rounded=1;orthogonalLoop=1;jettySize=auto;html=1;" parent="1" source="tuFBvk_88zkTL_cLm5_9-16" target="deeNJldHTBCf-zLZ4GmC-16" edge="1">
          <mxGeometry relative="1" as="geometry" />
        </mxCell>
        <mxCell id="tuFBvk_88zkTL_cLm5_9-16" value="" style="shape=image;verticalLabelPosition=bottom;verticalAlign=top;imageAspect=0;aspect=fixed;image=data:image/svg+xml,PHN2ZyB4bWxucz0iaHR0cDovL3d3dy53My5vcmcvMjAwMC9zdmciIHZpZXdCb3g9IjAgMCAxMjggMTI4Ij48cGF0aCBkPSJNMTI0LjczNyA1OC4zNzhMNjkuNjIxIDMuMjY0Yy0zLjE3Mi0zLjE3NC04LjMyLTMuMTc0LTExLjQ5NyAwTDQ2LjY4IDE0LjcxbDE0LjUxOCAxNC41MThjMy4zNzUtMS4xMzkgNy4yNDMtLjM3NSA5LjkzMiAyLjMxNCAyLjcwMyAyLjcwNiAzLjQ2MSA2LjYwNyAyLjI5NCA5Ljk5M2wxMy45OTIgMTMuOTkzYzMuMzg1LTEuMTY3IDcuMjkyLS40MTMgOS45OTQgMi4yOTUgMy43OCAzLjc3NyAzLjc4IDkuOSAwIDEzLjY3OWE5LjY3MyA5LjY3MyAwIDAxLTEzLjY4MyAwIDkuNjc3IDkuNjc3IDAgMDEtMi4xMDUtMTAuNTIxTDY4LjU3NCA0Ny45MzNsLS4wMDIgMzQuMzQxYTkuNzA4IDkuNzA4IDAgMDEyLjU1OSAxLjgyOGMzLjc3OCAzLjc3NyAzLjc3OCA5Ljg5OCAwIDEzLjY4My0zLjc3OSAzLjc3Ny05LjkwNCAzLjc3Ny0xMy42NzkgMC0zLjc3OC0zLjc4NC0zLjc3OC05LjkwNSAwLTEzLjY4M2E5LjY1IDkuNjUgMCAwMTMuMTY3LTIuMTFWNDcuMzMzYTkuNTgxIDkuNTgxIDAgMDEtMy4xNjctMi4xMTFjLTIuODYyLTIuODYtMy41NTEtNy4wNi0yLjA4My0xMC41NzZMNDEuMDU2IDIwLjMzMyAzLjI2NCA1OC4xMjNhOC4xMzMgOC4xMzMgMCAwMDAgMTEuNWw1NS4xMTcgNTUuMTE0YzMuMTc0IDMuMTc0IDguMzIgMy4xNzQgMTEuNDk5IDBsNTQuODU4LTU0Ljg1OGE4LjEzNSA4LjEzNSAwIDAwLS4wMDEtMTEuNTAxeiIgZmlsbD0iI0YzNEYyOSIvPjwvc3ZnPg==;perimeterSpacing=5;rounded=1;" parent="1" vertex="1">
          <mxGeometry x="200" y="1050" width="50" height="50" as="geometry" />
        </mxCell>
        <mxCell id="deeNJldHTBCf-zLZ4GmC-33" style="edgeStyle=orthogonalEdgeStyle;rounded=1;orthogonalLoop=1;jettySize=auto;html=1;exitX=0;exitY=0.75;exitDx=0;exitDy=0;entryX=1;entryY=0.75;entryDx=0;entryDy=0;" parent="1" source="tuFBvk_88zkTL_cLm5_9-18" target="deeNJldHTBCf-zLZ4GmC-6" edge="1">
          <mxGeometry relative="1" as="geometry" />
        </mxCell>
        <mxCell id="tuFBvk_88zkTL_cLm5_9-18" value="" style="shape=image;verticalLabelPosition=bottom;verticalAlign=top;imageAspect=0;aspect=fixed;image=data:image/svg+xml,PHN2ZyB4bWxucz0iaHR0cDovL3d3dy53My5vcmcvMjAwMC9zdmciIHZpZXdCb3g9IjAgMCAxMjggMTI4Ij48ZyBmaWxsPSIjMTgxNjE2Ij48cGF0aCBkPSJNNjQgNS4xMDNjLTMzLjM0NyAwLTYwLjM4OCAyNy4wMzUtNjAuMzg4IDYwLjM4OCAwIDI2LjY4MiAxNy4zMDMgNDkuMzE3IDQxLjI5NyA1Ny4zMDMgMy4wMTcuNTYgNC4xMjUtMS4zMSA0LjEyNS0yLjkwNSAwLTEuNDQtLjA1Ni02LjE5Ny0uMDgyLTExLjI0My0xNi44IDMuNjUzLTIwLjM0NS03LjEyNS0yMC4zNDUtNy4xMjUtMi43NDctNi45OC02LjcwNS04LjgzNi02LjcwNS04LjgzNi01LjQ4LTMuNzQ4LjQxMy0zLjY3LjQxMy0zLjY3IDYuMDYzLjQyNSA5LjI1NyA2LjIyMyA5LjI1NyA2LjIyMyA1LjM4NiA5LjIzIDE0LjEyNyA2LjU2MiAxNy41NzMgNS4wMi41NDItMy45MDMgMi4xMDctNi41NjggMy44MzQtOC4wNzYtMTMuNDEzLTEuNTI1LTI3LjUxNC02LjcwNC0yNy41MTQtMjkuODQzIDAtNi41OTMgMi4zNi0xMS45OCA2LjIyMy0xNi4yMS0uNjI4LTEuNTItMi42OTUtNy42NjIuNTg0LTE1Ljk4IDAgMCA1LjA3LTEuNjIzIDE2LjYxIDYuMTlDNTMuNyAzNSA1OC44NjcgMzQuMzI3IDY0IDM0LjMwNGM1LjEzLjAyMyAxMC4zLjY5NCAxNS4xMjcgMi4wMzMgMTEuNTI2LTcuODEzIDE2LjU5LTYuMTkgMTYuNTktNi4xOSAzLjI4NyA4LjMxNyAxLjIyIDE0LjQ2LjU5MyAxNS45OCAzLjg3MiA0LjIzIDYuMjE1IDkuNjE3IDYuMjE1IDE2LjIxIDAgMjMuMTk0LTE0LjEyNyAyOC4zLTI3LjU3NCAyOS43OTYgMi4xNjcgMS44NzQgNC4wOTcgNS41NSA0LjA5NyAxMS4xODMgMCA4LjA4LS4wNyAxNC41ODMtLjA3IDE2LjU3MiAwIDEuNjA3IDEuMDg4IDMuNDkgNC4xNDggMi44OTcgMjMuOTgtNy45OTQgNDEuMjYzLTMwLjYyMiA0MS4yNjMtNTcuMjk0QzEyNC4zODggMzIuMTQgOTcuMzUgNS4xMDQgNjQgNS4xMDR6IiBjbGlwLXJ1bGU9ImV2ZW5vZGQiIGZpbGwtcnVsZT0iZXZlbm9kZCIvPjxwYXRoIGQ9Ik0yNi40ODQgOTEuODA2Yy0uMTMzLjMtLjYwNS4zOS0xLjAzNS4xODUtLjQ0LS4xOTYtLjY4NS0uNjA1LS41NDMtLjkwNi4xMy0uMzEuNjAzLS4zOTUgMS4wNC0uMTg4LjQ0LjE5Ny42OS42MS41MzcuOTF6bTIuNDQ2IDIuNzI5Yy0uMjg3LjI2Ny0uODUuMTQzLTEuMjMyLS4yOC0uMzk2LS40Mi0uNDctLjk4My0uMTc3LTEuMjU0LjI5OC0uMjY2Ljg0NC0uMTQgMS4yNC4yOC4zOTQuNDI2LjQ3Mi45ODQuMTcgMS4yNTV6TTMxLjMxMiA5OC4wMTJjLS4zNy4yNTgtLjk3Ni4wMTctMS4zNS0uNTItLjM3LS41MzgtLjM3LTEuMTgzLjAxLTEuNDQuMzczLS4yNTguOTctLjAyNSAxLjM1LjUwNy4zNjguNTQ1LjM2OCAxLjE5LS4wMSAxLjQ1MnptMy4yNjEgMy4zNjFjLS4zMy4zNjUtMS4wMzYuMjY3LTEuNTUyLS4yMy0uNTI3LS40ODctLjY3NC0xLjE4LS4zNDMtMS41NDQuMzM2LS4zNjYgMS4wNDUtLjI2NCAxLjU2NC4yMy41MjcuNDg2LjY4NiAxLjE4LjMzMyAxLjU0M3ptNC41IDEuOTUxYy0uMTQ3LjQ3My0uODI1LjY4OC0xLjUxLjQ4Ni0uNjgzLS4yMDctMS4xMy0uNzYtLjk5LTEuMjM4LjE0LS40NzcuODIzLS43IDEuNTEyLS40ODUuNjgzLjIwNiAxLjEzLjc1Ni45ODggMS4yMzd6bTQuOTQzLjM2MWMuMDE3LjQ5OC0uNTYzLjkxLTEuMjguOTItLjcyMy4wMTctMS4zMDgtLjM4Ny0xLjMxNS0uODc3IDAtLjUwMy41NjgtLjkxIDEuMjktLjkyNC43MTctLjAxMyAxLjMwNi4zODcgMS4zMDYuODh6bTQuNTk4LS43ODJjLjA4Ni40ODUtLjQxMy45ODQtMS4xMjYgMS4xMTctLjcuMTMtMS4zNS0uMTcyLTEuNDQtLjY1My0uMDg2LS40OTguNDIyLS45OTcgMS4xMjItMS4xMjYuNzE0LS4xMjMgMS4zNTQuMTcgMS40NDQuNjYzem0wIDAiLz48L2c+PC9zdmc+;perimeterSpacing=5;rounded=1;" parent="1" vertex="1">
          <mxGeometry x="450" y="925" width="50" height="50" as="geometry" />
        </mxCell>
        <mxCell id="deeNJldHTBCf-zLZ4GmC-32" style="edgeStyle=orthogonalEdgeStyle;rounded=1;orthogonalLoop=1;jettySize=auto;html=1;exitX=1;exitY=0.25;exitDx=0;exitDy=0;entryX=0;entryY=0.25;entryDx=0;entryDy=0;" parent="1" source="deeNJldHTBCf-zLZ4GmC-6" target="tuFBvk_88zkTL_cLm5_9-18" edge="1">
          <mxGeometry relative="1" as="geometry" />
        </mxCell>
        <mxCell id="deeNJldHTBCf-zLZ4GmC-6" value="" style="shape=image;verticalLabelPosition=bottom;verticalAlign=top;imageAspect=0;image=data:image/svg+xml,PHN2ZyB4bWxucz0iaHR0cDovL3d3dy53My5vcmcvMjAwMC9zdmciIHZpZXdCb3g9IjAgMCAxMjggMTI4Ij48cGF0aCBkPSJNMjYuNjY2IDBDMTEuOTcgMCAwIDExLjk3IDAgMjYuNjY2YzAgMTIuODcgOS4xODEgMjMuNjUxIDIxLjMzNCAyNi4xM3YzNy44N2MwIDExLjc3IDkuNjggMjEuMzM0IDIxLjMzMiAyMS4zMzRoLjE5NWMxLjMwMiA5LjAyMyA5LjEgMTYgMTguNDczIDE2QzcxLjYxMiAxMjggODAgMTE5LjYxMiA4MCAxMDkuMzM0cy04LjM4OC0xOC42NjgtMTguNjY2LTE4LjY2OGMtOS4zNzIgMC0xNy4xNyA2Ljk3Ny0xOC40NzMgMTZoLS4xOTVjLTguNzM3IDAtMTYtNy4xNTItMTYtMTZWNjMuNzc5YTE4LjUxNCAxOC41MTQgMCAwIDAgMTMuMjQgNS41NTVoMi45NTVjMS4zMDMgOS4wMjMgOS4xIDE2IDE4LjQ3MyAxNiA5LjM3MiAwIDE3LjE2OS02Ljk3NyAxOC40Ny0xNmgxMS4wNTdjMS4zMDMgOS4wMjMgOS4xIDE2IDE4LjQ3MyAxNiAxMC4yNzggMCAxOC42NjYtOC4zOSAxOC42NjYtMTguNjY4QzEyOCA1Ni4zODggMTE5LjYxMiA0OCAxMDkuMzM0IDQ4Yy05LjM3MyAwLTE3LjE3MSA2Ljk3Ny0xOC40NzMgMTZINzkuODA1Yy0xLjMwMS05LjAyMy05LjA5OC0xNi0xOC40NzEtMTZzLTE3LjE3MSA2Ljk3Ny0xOC40NzMgMTZoLTIuOTU1Yy02LjQzMyAwLTExLjc5My00LjU4OS0xMi45ODgtMTAuNjcyIDE0LjU4LS4xMzYgMjYuNDE2LTEyLjA1IDI2LjQxNi0yNi42NjJDNTMuMzM0IDExLjk3IDQxLjM2MiAwIDI2LjY2NiAwem0wIDUuMzM0QTIxLjI5MiAyMS4yOTIgMCAwIDEgNDggMjYuNjY2IDIxLjI5NCAyMS4yOTQgMCAwIDEgMjYuNjY2IDQ4IDIxLjI5MiAyMS4yOTIgMCAwIDEgNS4zMzQgMjYuNjY2IDIxLjI5IDIxLjI5IDAgMCAxIDI2LjY2NiA1LjMzNHptLTUuMjE1IDcuNTQxQzE4LjY3IDEyLjg4OSAxNiAxNS4xMjMgMTYgMTguMTY2djE3LjA0M2MwIDQuMDQzIDQuNzA5IDYuNjYzIDguMTQ1IDQuNTMzbDEzLjYzNC04LjQ1NWMzLjI1Ny0yLjAyIDMuMjc0LTcuMDAyLjAzMi05LjA0NWwtMTMuNjM1LTguNTlhNS4wMjQgNS4wMjQgMCAwIDAtMi43MjUtLjc3N3ptLS4xMTcgNS4yOTEgMTMuNjM1IDguNTg4LTEzLjYzNSA4LjQ1NVYxOC4xNjZ6bTQwIDM1LjE2OGExMy4yOSAxMy4yOSAwIDAgMSAxMy4zMzIgMTMuMzMyQTEzLjI5MyAxMy4yOTMgMCAwIDEgNjEuMzM0IDgwIDEzLjI5NCAxMy4yOTQgMCAwIDEgNDggNjYuNjY2YTEzLjI5MyAxMy4yOTMgMCAwIDEgMTMuMzM0LTEzLjMzMnptNDggMGExMy4yOSAxMy4yOSAwIDAgMSAxMy4zMzIgMTMuMzMyQTEzLjI5MyAxMy4yOTMgMCAwIDEgMTA5LjMzNCA4MCAxMy4yOTQgMTMuMjk0IDAgMCAxIDk2IDY2LjY2NmExMy4yOTMgMTMuMjkzIDAgMCAxIDEzLjMzNC0xMy4zMzJ6bS00Mi41NjggNi45NTFhMi42NjcgMi42NjcgMCAwIDAtMS44ODcuNzhsLTYuMyA2LjI5NC0yLjA5My0yLjA4NGEyLjY2NyAyLjY2NyAwIDAgMC0zLjc3MS4wMDYgMi42NjcgMi42NjcgMCAwIDAgLjAwOCAzLjc3MmwzLjk3NCAzLjk2YTIuNjY3IDIuNjY3IDAgMCAwIDMuNzY2LS4wMDFsOC4xODUtOC4xNzRhMi42NjcgMi42NjcgMCAwIDAgLjAwMi0zLjc3MiAyLjY2NyAyLjY2NyAwIDAgMC0xLjg4NC0uNzh6bTQ4IDBhMi42NjcgMi42NjcgMCAwIDAtMS44ODcuNzhsLTYuMyA2LjI5NC0yLjA5My0yLjA4NGEyLjY2NyAyLjY2NyAwIDAgMC0zLjc3MS4wMDYgMi42NjcgMi42NjcgMCAwIDAgLjAwOCAzLjc3MmwzLjk3NCAzLjk2YTIuNjY3IDIuNjY3IDAgMCAwIDMuNzY2LS4wMDFsOC4xODUtOC4xNzRhMi42NjcgMi42NjcgMCAwIDAgLjAwMi0zLjc3MiAyLjY2NyAyLjY2NyAwIDAgMC0xLjg4NC0uNzh6TTYxLjMzNCA5NmExMy4yOTMgMTMuMjkzIDAgMCAxIDEzLjMzMiAxMy4zMzQgMTMuMjkgMTMuMjkgMCAwIDEtMTMuMzMyIDEzLjMzMkExMy4yOTMgMTMuMjkzIDAgMCAxIDQ4IDEwOS4zMzQgMTMuMjk0IDEzLjI5NCAwIDAgMSA2MS4zMzQgOTZ6TTU2IDEwNS4zMzRjLTIuMTkzIDAtNCAxLjgwNy00IDQgMCAyLjE5NSAxLjgwOCA0IDQgNHM0LTEuODA1IDQtNGMwLTIuMTkzLTEuODA3LTQtNC00em0xMC42NjYgMGMtMi4xOTMgMC00IDEuODA3LTQgNCAwIDIuMTk1IDEuODA4IDQgNCA0czQtMS44MDUgNC00YzAtMi4xOTMtMS44MDctNC00LTR6TTU2IDEwOGMuNzUgMCAxLjMzNC41ODUgMS4zMzQgMS4zMzQgMCAuNzUzLS41ODMgMS4zMzItMS4zMzQgMS4zMzItLjc1IDAtMS4zMzQtLjU4LTEuMzM0LTEuMzMyIDAtLjc1LjU4NS0xLjMzNCAxLjMzNC0xLjMzNHptMTAuNjY2IDBjLjc1IDAgMS4zMzQuNTg1IDEuMzM0IDEuMzM0IDAgLjc1My0uNTgzIDEuMzMyLTEuMzM0IDEuMzMyLS43NSAwLTEuMzMyLS41OC0xLjMzMi0xLjMzMiAwLS43NS41ODMtMS4zMzQgMS4zMzItMS4zMzR6IiBmaWxsPSIjMjA4OGZmIi8+PHBhdGggZD0iTTEwOS4zMzQgOTAuNjY2Yy05LjM4MyAwLTE3LjE4OCA2Ljk5My0xOC40NzcgMTYuMDMxYTIuNjY3IDIuNjY3IDAgMCAwLS4yNjUtLjAxMWwtMi43LjA5YTIuNjY3IDIuNjY3IDAgMCAwLTIuNTc4IDIuNzUxIDIuNjY3IDIuNjY3IDAgMCAwIDIuNzUyIDIuNTc4bDIuNy0uMDg3YTIuNjY3IDIuNjY3IDAgMCAwIC4wOTctLjAwNkM5Mi4xNyAxMjEuMDI5IDk5Ljk2NSAxMjggMTA5LjMzNCAxMjhjMTAuMjc4IDAgMTguNjY2LTguMzg4IDE4LjY2Ni0xOC42NjZzLTguMzg4LTE4LjY2OC0xOC42NjYtMTguNjY4em0wIDUuMzM0YTEzLjI5MyAxMy4yOTMgMCAwIDEgMTMuMzMyIDEzLjMzNCAxMy4yOSAxMy4yOSAwIDAgMS0xMy4zMzIgMTMuMzMyQTEzLjI5MyAxMy4yOTMgMCAwIDEgOTYgMTA5LjMzNCAxMy4yOTQgMTMuMjk0IDAgMCAxIDEwOS4zMzQgOTZ6IiBmaWxsPSIjNzliOGZmIi8+PC9zdmc+;perimeterSpacing=5;rounded=1;" parent="1" vertex="1">
          <mxGeometry x="324" y="925" width="50" height="50" as="geometry" />
        </mxCell>
        <mxCell id="deeNJldHTBCf-zLZ4GmC-15" style="edgeStyle=orthogonalEdgeStyle;rounded=1;orthogonalLoop=1;jettySize=auto;html=1;exitX=0;exitY=0.5;exitDx=0;exitDy=0;" parent="1" source="deeNJldHTBCf-zLZ4GmC-12" target="deeNJldHTBCf-zLZ4GmC-6" edge="1">
          <mxGeometry relative="1" as="geometry">
            <mxPoint x="446" y="1200.06" as="sourcePoint" />
            <mxPoint x="330.03999999999996" y="1009.9999999999998" as="targetPoint" />
          </mxGeometry>
        </mxCell>
        <mxCell id="deeNJldHTBCf-zLZ4GmC-12" value="" style="shape=image;verticalLabelPosition=bottom;verticalAlign=top;imageAspect=0;aspect=fixed;image=data:image/svg+xml,PHN2ZyB4bWxucz0iaHR0cDovL3d3dy53My5vcmcvMjAwMC9zdmciIHZpZXdCb3g9IjAgMCAxMjggMTI4Ij48ZyBmaWxsPSIjMTgxNjE2Ij48cGF0aCBkPSJNNjQgNS4xMDNjLTMzLjM0NyAwLTYwLjM4OCAyNy4wMzUtNjAuMzg4IDYwLjM4OCAwIDI2LjY4MiAxNy4zMDMgNDkuMzE3IDQxLjI5NyA1Ny4zMDMgMy4wMTcuNTYgNC4xMjUtMS4zMSA0LjEyNS0yLjkwNSAwLTEuNDQtLjA1Ni02LjE5Ny0uMDgyLTExLjI0My0xNi44IDMuNjUzLTIwLjM0NS03LjEyNS0yMC4zNDUtNy4xMjUtMi43NDctNi45OC02LjcwNS04LjgzNi02LjcwNS04LjgzNi01LjQ4LTMuNzQ4LjQxMy0zLjY3LjQxMy0zLjY3IDYuMDYzLjQyNSA5LjI1NyA2LjIyMyA5LjI1NyA2LjIyMyA1LjM4NiA5LjIzIDE0LjEyNyA2LjU2MiAxNy41NzMgNS4wMi41NDItMy45MDMgMi4xMDctNi41NjggMy44MzQtOC4wNzYtMTMuNDEzLTEuNTI1LTI3LjUxNC02LjcwNC0yNy41MTQtMjkuODQzIDAtNi41OTMgMi4zNi0xMS45OCA2LjIyMy0xNi4yMS0uNjI4LTEuNTItMi42OTUtNy42NjIuNTg0LTE1Ljk4IDAgMCA1LjA3LTEuNjIzIDE2LjYxIDYuMTlDNTMuNyAzNSA1OC44NjcgMzQuMzI3IDY0IDM0LjMwNGM1LjEzLjAyMyAxMC4zLjY5NCAxNS4xMjcgMi4wMzMgMTEuNTI2LTcuODEzIDE2LjU5LTYuMTkgMTYuNTktNi4xOSAzLjI4NyA4LjMxNyAxLjIyIDE0LjQ2LjU5MyAxNS45OCAzLjg3MiA0LjIzIDYuMjE1IDkuNjE3IDYuMjE1IDE2LjIxIDAgMjMuMTk0LTE0LjEyNyAyOC4zLTI3LjU3NCAyOS43OTYgMi4xNjcgMS44NzQgNC4wOTcgNS41NSA0LjA5NyAxMS4xODMgMCA4LjA4LS4wNyAxNC41ODMtLjA3IDE2LjU3MiAwIDEuNjA3IDEuMDg4IDMuNDkgNC4xNDggMi44OTcgMjMuOTgtNy45OTQgNDEuMjYzLTMwLjYyMiA0MS4yNjMtNTcuMjk0QzEyNC4zODggMzIuMTQgOTcuMzUgNS4xMDQgNjQgNS4xMDR6IiBjbGlwLXJ1bGU9ImV2ZW5vZGQiIGZpbGwtcnVsZT0iZXZlbm9kZCIvPjxwYXRoIGQ9Ik0yNi40ODQgOTEuODA2Yy0uMTMzLjMtLjYwNS4zOS0xLjAzNS4xODUtLjQ0LS4xOTYtLjY4NS0uNjA1LS41NDMtLjkwNi4xMy0uMzEuNjAzLS4zOTUgMS4wNC0uMTg4LjQ0LjE5Ny42OS42MS41MzcuOTF6bTIuNDQ2IDIuNzI5Yy0uMjg3LjI2Ny0uODUuMTQzLTEuMjMyLS4yOC0uMzk2LS40Mi0uNDctLjk4My0uMTc3LTEuMjU0LjI5OC0uMjY2Ljg0NC0uMTQgMS4yNC4yOC4zOTQuNDI2LjQ3Mi45ODQuMTcgMS4yNTV6TTMxLjMxMiA5OC4wMTJjLS4zNy4yNTgtLjk3Ni4wMTctMS4zNS0uNTItLjM3LS41MzgtLjM3LTEuMTgzLjAxLTEuNDQuMzczLS4yNTguOTctLjAyNSAxLjM1LjUwNy4zNjguNTQ1LjM2OCAxLjE5LS4wMSAxLjQ1MnptMy4yNjEgMy4zNjFjLS4zMy4zNjUtMS4wMzYuMjY3LTEuNTUyLS4yMy0uNTI3LS40ODctLjY3NC0xLjE4LS4zNDMtMS41NDQuMzM2LS4zNjYgMS4wNDUtLjI2NCAxLjU2NC4yMy41MjcuNDg2LjY4NiAxLjE4LjMzMyAxLjU0M3ptNC41IDEuOTUxYy0uMTQ3LjQ3My0uODI1LjY4OC0xLjUxLjQ4Ni0uNjgzLS4yMDctMS4xMy0uNzYtLjk5LTEuMjM4LjE0LS40NzcuODIzLS43IDEuNTEyLS40ODUuNjgzLjIwNiAxLjEzLjc1Ni45ODggMS4yMzd6bTQuOTQzLjM2MWMuMDE3LjQ5OC0uNTYzLjkxLTEuMjguOTItLjcyMy4wMTctMS4zMDgtLjM4Ny0xLjMxNS0uODc3IDAtLjUwMy41NjgtLjkxIDEuMjktLjkyNC43MTctLjAxMyAxLjMwNi4zODcgMS4zMDYuODh6bTQuNTk4LS43ODJjLjA4Ni40ODUtLjQxMy45ODQtMS4xMjYgMS4xMTctLjcuMTMtMS4zNS0uMTcyLTEuNDQtLjY1My0uMDg2LS40OTguNDIyLS45OTcgMS4xMjItMS4xMjYuNzE0LS4xMjMgMS4zNTQuMTcgMS40NDQuNjYzem0wIDAiLz48L2c+PC9zdmc+;perimeterSpacing=5;rounded=1;" parent="1" vertex="1">
          <mxGeometry x="450" y="1140" width="50" height="50" as="geometry" />
        </mxCell>
        <mxCell id="deeNJldHTBCf-zLZ4GmC-17" style="edgeStyle=orthogonalEdgeStyle;rounded=1;orthogonalLoop=1;jettySize=auto;html=1;" parent="1" source="deeNJldHTBCf-zLZ4GmC-16" target="deeNJldHTBCf-zLZ4GmC-6" edge="1">
          <mxGeometry relative="1" as="geometry" />
        </mxCell>
        <mxCell id="deeNJldHTBCf-zLZ4GmC-16" value="" style="shape=image;verticalLabelPosition=bottom;verticalAlign=top;imageAspect=0;aspect=fixed;image=data:image/svg+xml,PHN2ZyB4bWxucz0iaHR0cDovL3d3dy53My5vcmcvMjAwMC9zdmciIHZpZXdCb3g9IjAgMCAxMjggMTI4Ij48ZyBmaWxsPSIjMTgxNjE2Ij48cGF0aCBkPSJNNjQgNS4xMDNjLTMzLjM0NyAwLTYwLjM4OCAyNy4wMzUtNjAuMzg4IDYwLjM4OCAwIDI2LjY4MiAxNy4zMDMgNDkuMzE3IDQxLjI5NyA1Ny4zMDMgMy4wMTcuNTYgNC4xMjUtMS4zMSA0LjEyNS0yLjkwNSAwLTEuNDQtLjA1Ni02LjE5Ny0uMDgyLTExLjI0My0xNi44IDMuNjUzLTIwLjM0NS03LjEyNS0yMC4zNDUtNy4xMjUtMi43NDctNi45OC02LjcwNS04LjgzNi02LjcwNS04LjgzNi01LjQ4LTMuNzQ4LjQxMy0zLjY3LjQxMy0zLjY3IDYuMDYzLjQyNSA5LjI1NyA2LjIyMyA5LjI1NyA2LjIyMyA1LjM4NiA5LjIzIDE0LjEyNyA2LjU2MiAxNy41NzMgNS4wMi41NDItMy45MDMgMi4xMDctNi41NjggMy44MzQtOC4wNzYtMTMuNDEzLTEuNTI1LTI3LjUxNC02LjcwNC0yNy41MTQtMjkuODQzIDAtNi41OTMgMi4zNi0xMS45OCA2LjIyMy0xNi4yMS0uNjI4LTEuNTItMi42OTUtNy42NjIuNTg0LTE1Ljk4IDAgMCA1LjA3LTEuNjIzIDE2LjYxIDYuMTlDNTMuNyAzNSA1OC44NjcgMzQuMzI3IDY0IDM0LjMwNGM1LjEzLjAyMyAxMC4zLjY5NCAxNS4xMjcgMi4wMzMgMTEuNTI2LTcuODEzIDE2LjU5LTYuMTkgMTYuNTktNi4xOSAzLjI4NyA4LjMxNyAxLjIyIDE0LjQ2LjU5MyAxNS45OCAzLjg3MiA0LjIzIDYuMjE1IDkuNjE3IDYuMjE1IDE2LjIxIDAgMjMuMTk0LTE0LjEyNyAyOC4zLTI3LjU3NCAyOS43OTYgMi4xNjcgMS44NzQgNC4wOTcgNS41NSA0LjA5NyAxMS4xODMgMCA4LjA4LS4wNyAxNC41ODMtLjA3IDE2LjU3MiAwIDEuNjA3IDEuMDg4IDMuNDkgNC4xNDggMi44OTcgMjMuOTgtNy45OTQgNDEuMjYzLTMwLjYyMiA0MS4yNjMtNTcuMjk0QzEyNC4zODggMzIuMTQgOTcuMzUgNS4xMDQgNjQgNS4xMDR6IiBjbGlwLXJ1bGU9ImV2ZW5vZGQiIGZpbGwtcnVsZT0iZXZlbm9kZCIvPjxwYXRoIGQ9Ik0yNi40ODQgOTEuODA2Yy0uMTMzLjMtLjYwNS4zOS0xLjAzNS4xODUtLjQ0LS4xOTYtLjY4NS0uNjA1LS41NDMtLjkwNi4xMy0uMzEuNjAzLS4zOTUgMS4wNC0uMTg4LjQ0LjE5Ny42OS42MS41MzcuOTF6bTIuNDQ2IDIuNzI5Yy0uMjg3LjI2Ny0uODUuMTQzLTEuMjMyLS4yOC0uMzk2LS40Mi0uNDctLjk4My0uMTc3LTEuMjU0LjI5OC0uMjY2Ljg0NC0uMTQgMS4yNC4yOC4zOTQuNDI2LjQ3Mi45ODQuMTcgMS4yNTV6TTMxLjMxMiA5OC4wMTJjLS4zNy4yNTgtLjk3Ni4wMTctMS4zNS0uNTItLjM3LS41MzgtLjM3LTEuMTgzLjAxLTEuNDQuMzczLS4yNTguOTctLjAyNSAxLjM1LjUwNy4zNjguNTQ1LjM2OCAxLjE5LS4wMSAxLjQ1MnptMy4yNjEgMy4zNjFjLS4zMy4zNjUtMS4wMzYuMjY3LTEuNTUyLS4yMy0uNTI3LS40ODctLjY3NC0xLjE4LS4zNDMtMS41NDQuMzM2LS4zNjYgMS4wNDUtLjI2NCAxLjU2NC4yMy41MjcuNDg2LjY4NiAxLjE4LjMzMyAxLjU0M3ptNC41IDEuOTUxYy0uMTQ3LjQ3My0uODI1LjY4OC0xLjUxLjQ4Ni0uNjgzLS4yMDctMS4xMy0uNzYtLjk5LTEuMjM4LjE0LS40NzcuODIzLS43IDEuNTEyLS40ODUuNjgzLjIwNiAxLjEzLjc1Ni45ODggMS4yMzd6bTQuOTQzLjM2MWMuMDE3LjQ5OC0uNTYzLjkxLTEuMjguOTItLjcyMy4wMTctMS4zMDgtLjM4Ny0xLjMxNS0uODc3IDAtLjUwMy41NjgtLjkxIDEuMjktLjkyNC43MTctLjAxMyAxLjMwNi4zODcgMS4zMDYuODh6bTQuNTk4LS43ODJjLjA4Ni40ODUtLjQxMy45ODQtMS4xMjYgMS4xMTctLjcuMTMtMS4zNS0uMTcyLTEuNDQtLjY1My0uMDg2LS40OTguNDIyLS45OTcgMS4xMjItMS4xMjYuNzE0LS4xMjMgMS4zNTQuMTcgMS40NDQuNjYzem0wIDAiLz48L2c+PC9zdmc+;perimeterSpacing=5;rounded=1;" parent="1" vertex="1">
          <mxGeometry x="200" y="925" width="50" height="50" as="geometry" />
        </mxCell>
        <mxCell id="deeNJldHTBCf-zLZ4GmC-34" style="edgeStyle=orthogonalEdgeStyle;rounded=1;orthogonalLoop=1;jettySize=auto;html=1;entryX=0.893;entryY=0.553;entryDx=0;entryDy=0;entryPerimeter=0;" parent="1" source="deeNJldHTBCf-zLZ4GmC-29" target="deeNJldHTBCf-zLZ4GmC-12" edge="1">
          <mxGeometry relative="1" as="geometry">
            <Array as="points">
              <mxPoint x="656" y="1168" />
              <mxPoint x="525" y="1168" />
            </Array>
          </mxGeometry>
        </mxCell>
        <mxCell id="deeNJldHTBCf-zLZ4GmC-41" style="edgeStyle=orthogonalEdgeStyle;rounded=1;orthogonalLoop=1;jettySize=auto;html=1;exitX=1;exitY=0.75;exitDx=0;exitDy=0;" parent="1" source="deeNJldHTBCf-zLZ4GmC-35" target="deeNJldHTBCf-zLZ4GmC-29" edge="1">
          <mxGeometry relative="1" as="geometry">
            <Array as="points">
              <mxPoint x="600" y="1060" />
              <mxPoint x="600" y="1060" />
            </Array>
          </mxGeometry>
        </mxCell>
        <mxCell id="deeNJldHTBCf-zLZ4GmC-35" value="" style="shape=image;verticalLabelPosition=bottom;verticalAlign=top;imageAspect=0;image=data:image/svg+xml,PHN2ZyB4bWxucz0iaHR0cDovL3d3dy53My5vcmcvMjAwMC9zdmciIHZpZXdCb3g9IjAgMCAxMjggMTI4Ij48cGF0aCBkPSJNMjYuNjY2IDBDMTEuOTcgMCAwIDExLjk3IDAgMjYuNjY2YzAgMTIuODcgOS4xODEgMjMuNjUxIDIxLjMzNCAyNi4xM3YzNy44N2MwIDExLjc3IDkuNjggMjEuMzM0IDIxLjMzMiAyMS4zMzRoLjE5NWMxLjMwMiA5LjAyMyA5LjEgMTYgMTguNDczIDE2QzcxLjYxMiAxMjggODAgMTE5LjYxMiA4MCAxMDkuMzM0cy04LjM4OC0xOC42NjgtMTguNjY2LTE4LjY2OGMtOS4zNzIgMC0xNy4xNyA2Ljk3Ny0xOC40NzMgMTZoLS4xOTVjLTguNzM3IDAtMTYtNy4xNTItMTYtMTZWNjMuNzc5YTE4LjUxNCAxOC41MTQgMCAwIDAgMTMuMjQgNS41NTVoMi45NTVjMS4zMDMgOS4wMjMgOS4xIDE2IDE4LjQ3MyAxNiA5LjM3MiAwIDE3LjE2OS02Ljk3NyAxOC40Ny0xNmgxMS4wNTdjMS4zMDMgOS4wMjMgOS4xIDE2IDE4LjQ3MyAxNiAxMC4yNzggMCAxOC42NjYtOC4zOSAxOC42NjYtMTguNjY4QzEyOCA1Ni4zODggMTE5LjYxMiA0OCAxMDkuMzM0IDQ4Yy05LjM3MyAwLTE3LjE3MSA2Ljk3Ny0xOC40NzMgMTZINzkuODA1Yy0xLjMwMS05LjAyMy05LjA5OC0xNi0xOC40NzEtMTZzLTE3LjE3MSA2Ljk3Ny0xOC40NzMgMTZoLTIuOTU1Yy02LjQzMyAwLTExLjc5My00LjU4OS0xMi45ODgtMTAuNjcyIDE0LjU4LS4xMzYgMjYuNDE2LTEyLjA1IDI2LjQxNi0yNi42NjJDNTMuMzM0IDExLjk3IDQxLjM2MiAwIDI2LjY2NiAwem0wIDUuMzM0QTIxLjI5MiAyMS4yOTIgMCAwIDEgNDggMjYuNjY2IDIxLjI5NCAyMS4yOTQgMCAwIDEgMjYuNjY2IDQ4IDIxLjI5MiAyMS4yOTIgMCAwIDEgNS4zMzQgMjYuNjY2IDIxLjI5IDIxLjI5IDAgMCAxIDI2LjY2NiA1LjMzNHptLTUuMjE1IDcuNTQxQzE4LjY3IDEyLjg4OSAxNiAxNS4xMjMgMTYgMTguMTY2djE3LjA0M2MwIDQuMDQzIDQuNzA5IDYuNjYzIDguMTQ1IDQuNTMzbDEzLjYzNC04LjQ1NWMzLjI1Ny0yLjAyIDMuMjc0LTcuMDAyLjAzMi05LjA0NWwtMTMuNjM1LTguNTlhNS4wMjQgNS4wMjQgMCAwIDAtMi43MjUtLjc3N3ptLS4xMTcgNS4yOTEgMTMuNjM1IDguNTg4LTEzLjYzNSA4LjQ1NVYxOC4xNjZ6bTQwIDM1LjE2OGExMy4yOSAxMy4yOSAwIDAgMSAxMy4zMzIgMTMuMzMyQTEzLjI5MyAxMy4yOTMgMCAwIDEgNjEuMzM0IDgwIDEzLjI5NCAxMy4yOTQgMCAwIDEgNDggNjYuNjY2YTEzLjI5MyAxMy4yOTMgMCAwIDEgMTMuMzM0LTEzLjMzMnptNDggMGExMy4yOSAxMy4yOSAwIDAgMSAxMy4zMzIgMTMuMzMyQTEzLjI5MyAxMy4yOTMgMCAwIDEgMTA5LjMzNCA4MCAxMy4yOTQgMTMuMjk0IDAgMCAxIDk2IDY2LjY2NmExMy4yOTMgMTMuMjkzIDAgMCAxIDEzLjMzNC0xMy4zMzJ6bS00Mi41NjggNi45NTFhMi42NjcgMi42NjcgMCAwIDAtMS44ODcuNzhsLTYuMyA2LjI5NC0yLjA5My0yLjA4NGEyLjY2NyAyLjY2NyAwIDAgMC0zLjc3MS4wMDYgMi42NjcgMi42NjcgMCAwIDAgLjAwOCAzLjc3MmwzLjk3NCAzLjk2YTIuNjY3IDIuNjY3IDAgMCAwIDMuNzY2LS4wMDFsOC4xODUtOC4xNzRhMi42NjcgMi42NjcgMCAwIDAgLjAwMi0zLjc3MiAyLjY2NyAyLjY2NyAwIDAgMC0xLjg4NC0uNzh6bTQ4IDBhMi42NjcgMi42NjcgMCAwIDAtMS44ODcuNzhsLTYuMyA2LjI5NC0yLjA5My0yLjA4NGEyLjY2NyAyLjY2NyAwIDAgMC0zLjc3MS4wMDYgMi42NjcgMi42NjcgMCAwIDAgLjAwOCAzLjc3MmwzLjk3NCAzLjk2YTIuNjY3IDIuNjY3IDAgMCAwIDMuNzY2LS4wMDFsOC4xODUtOC4xNzRhMi42NjcgMi42NjcgMCAwIDAgLjAwMi0zLjc3MiAyLjY2NyAyLjY2NyAwIDAgMC0xLjg4NC0uNzh6TTYxLjMzNCA5NmExMy4yOTMgMTMuMjkzIDAgMCAxIDEzLjMzMiAxMy4zMzQgMTMuMjkgMTMuMjkgMCAwIDEtMTMuMzMyIDEzLjMzMkExMy4yOTMgMTMuMjkzIDAgMCAxIDQ4IDEwOS4zMzQgMTMuMjk0IDEzLjI5NCAwIDAgMSA2MS4zMzQgOTZ6TTU2IDEwNS4zMzRjLTIuMTkzIDAtNCAxLjgwNy00IDQgMCAyLjE5NSAxLjgwOCA0IDQgNHM0LTEuODA1IDQtNGMwLTIuMTkzLTEuODA3LTQtNC00em0xMC42NjYgMGMtMi4xOTMgMC00IDEuODA3LTQgNCAwIDIuMTk1IDEuODA4IDQgNCA0czQtMS44MDUgNC00YzAtMi4xOTMtMS44MDctNC00LTR6TTU2IDEwOGMuNzUgMCAxLjMzNC41ODUgMS4zMzQgMS4zMzQgMCAuNzUzLS41ODMgMS4zMzItMS4zMzQgMS4zMzItLjc1IDAtMS4zMzQtLjU4LTEuMzM0LTEuMzMyIDAtLjc1LjU4NS0xLjMzNCAxLjMzNC0xLjMzNHptMTAuNjY2IDBjLjc1IDAgMS4zMzQuNTg1IDEuMzM0IDEuMzM0IDAgLjc1My0uNTgzIDEuMzMyLTEuMzM0IDEuMzMyLS43NSAwLTEuMzMyLS41OC0xLjMzMi0xLjMzMiAwLS43NS41ODMtMS4zMzQgMS4zMzItMS4zMzR6IiBmaWxsPSIjMjA4OGZmIi8+PHBhdGggZD0iTTEwOS4zMzQgOTAuNjY2Yy05LjM4MyAwLTE3LjE4OCA2Ljk5My0xOC40NzcgMTYuMDMxYTIuNjY3IDIuNjY3IDAgMCAwLS4yNjUtLjAxMWwtMi43LjA5YTIuNjY3IDIuNjY3IDAgMCAwLTIuNTc4IDIuNzUxIDIuNjY3IDIuNjY3IDAgMCAwIDIuNzUyIDIuNTc4bDIuNy0uMDg3YTIuNjY3IDIuNjY3IDAgMCAwIC4wOTctLjAwNkM5Mi4xNyAxMjEuMDI5IDk5Ljk2NSAxMjggMTA5LjMzNCAxMjhjMTAuMjc4IDAgMTguNjY2LTguMzg4IDE4LjY2Ni0xOC42NjZzLTguMzg4LTE4LjY2OC0xOC42NjYtMTguNjY4em0wIDUuMzM0YTEzLjI5MyAxMy4yOTMgMCAwIDEgMTMuMzMyIDEzLjMzNCAxMy4yOSAxMy4yOSAwIDAgMS0xMy4zMzIgMTMuMzMyQTEzLjI5MyAxMy4yOTMgMCAwIDEgOTYgMTA5LjMzNCAxMy4yOTQgMTMuMjk0IDAgMCAxIDEwOS4zMzQgOTZ6IiBmaWxsPSIjNzliOGZmIi8+PC9zdmc+;perimeterSpacing=5;rounded=1;" parent="1" vertex="1">
          <mxGeometry x="450" y="1020" width="50" height="50" as="geometry" />
        </mxCell>
        <mxCell id="deeNJldHTBCf-zLZ4GmC-40" style="edgeStyle=orthogonalEdgeStyle;rounded=1;orthogonalLoop=1;jettySize=auto;html=1;exitX=0;exitY=0.33;exitDx=0;exitDy=0;exitPerimeter=0;entryX=0.943;entryY=0.326;entryDx=0;entryDy=0;entryPerimeter=0;" parent="1" source="deeNJldHTBCf-zLZ4GmC-29" target="deeNJldHTBCf-zLZ4GmC-35" edge="1">
          <mxGeometry relative="1" as="geometry" />
        </mxCell>
        <mxCell id="P9NamyRKtRBUNo8rRp3y-3" style="edgeStyle=orthogonalEdgeStyle;rounded=1;orthogonalLoop=1;jettySize=auto;html=1;entryX=0;entryY=0.5;entryDx=0;entryDy=0;" parent="1" source="P9NamyRKtRBUNo8rRp3y-1" target="tuFBvk_88zkTL_cLm5_9-16" edge="1">
          <mxGeometry relative="1" as="geometry" />
        </mxCell>
        <mxCell id="P9NamyRKtRBUNo8rRp3y-1" value="End Users" style="sketch=0;outlineConnect=0;fontColor=#232F3E;gradientColor=none;fillColor=#232F3D;strokeColor=none;dashed=0;verticalLabelPosition=bottom;verticalAlign=top;align=center;html=1;fontSize=12;fontStyle=0;aspect=fixed;pointerEvents=1;shape=mxgraph.aws4.users;perimeterSpacing=5;rounded=1;" parent="1" vertex="1">
          <mxGeometry x="50" y="1050" width="50" height="50" as="geometry" />
        </mxCell>
        <mxCell id="KC3xq8jwCQPXp9tBLLmZ-4" value="1. A commit is made to master" style="text;strokeColor=none;align=center;fillColor=none;html=1;verticalAlign=middle;whiteSpace=wrap;rounded=1;fontSize=8;" parent="1" vertex="1">
          <mxGeometry x="110" y="1040" width="60" height="30" as="geometry" />
        </mxCell>
        <mxCell id="KC3xq8jwCQPXp9tBLLmZ-6" value="2. It triggers the deployment workflow" style="text;strokeColor=none;align=center;fillColor=none;html=1;verticalAlign=middle;whiteSpace=wrap;rounded=1;fontSize=8;" parent="1" vertex="1">
          <mxGeometry x="240" y="1000" width="60" height="30" as="geometry" />
        </mxCell>
        <mxCell id="KC3xq8jwCQPXp9tBLLmZ-7" value="3. It triggers all branch protection rules" style="text;strokeColor=none;align=center;fillColor=none;html=1;verticalAlign=middle;whiteSpace=wrap;rounded=1;fontSize=8;" parent="1" vertex="1">
          <mxGeometry x="380" y="895" width="60" height="30" as="geometry" />
        </mxCell>
        <mxCell id="KC3xq8jwCQPXp9tBLLmZ-8" value="4. The workflow is marked as pending" style="text;strokeColor=none;align=center;fillColor=none;html=1;verticalAlign=middle;whiteSpace=wrap;rounded=1;fontSize=8;" parent="1" vertex="1">
          <mxGeometry x="380" y="975" width="60" height="30" as="geometry" />
        </mxCell>
        <mxCell id="KC3xq8jwCQPXp9tBLLmZ-10" value="6. The canary workflow is triggered" style="text;strokeColor=none;align=center;fillColor=none;html=1;verticalAlign=middle;whiteSpace=wrap;rounded=1;fontSize=8;" parent="1" vertex="1">
          <mxGeometry x="480" y="990" width="60" height="30" as="geometry" />
        </mxCell>
        <mxCell id="KC3xq8jwCQPXp9tBLLmZ-11" value="7. The canary result is sent to the app" style="text;strokeColor=none;align=center;fillColor=none;html=1;verticalAlign=middle;whiteSpace=wrap;rounded=1;fontSize=8;" parent="1" vertex="1">
          <mxGeometry x="480" y="1080" width="60" height="30" as="geometry" />
        </mxCell>
        <mxCell id="KC3xq8jwCQPXp9tBLLmZ-13" value="9. Deployment to continue if good, else skipped" style="text;strokeColor=none;align=center;fillColor=none;html=1;verticalAlign=middle;whiteSpace=wrap;rounded=1;fontSize=8;" parent="1" vertex="1">
          <mxGeometry x="380" y="1110" width="60" height="30" as="geometry" />
        </mxCell>
      </root>
    </mxGraphModel>
  </diagram>
  <diagram name="Copy of VPN vs Athena" id="Nz3jl8JmZLwNPT5LHNIk">
    <mxGraphModel dx="1307" dy="35" grid="1" gridSize="10" guides="1" tooltips="1" connect="1" arrows="1" fold="1" page="1" pageScale="1" pageWidth="1169" pageHeight="827" background="none" math="0" shadow="1">
      <root>
        <mxCell id="VMMxi6mZExp3p79Hm0WI-0" />
        <mxCell id="VMMxi6mZExp3p79Hm0WI-1" parent="VMMxi6mZExp3p79Hm0WI-0" />
        <mxCell id="VMMxi6mZExp3p79Hm0WI-2" value="App" style="points=[[0,0],[0.25,0],[0.5,0],[0.75,0],[1,0],[1,0.25],[1,0.5],[1,0.75],[1,1],[0.75,1],[0.5,1],[0.25,1],[0,1],[0,0.75],[0,0.5],[0,0.25]];outlineConnect=0;gradientColor=none;html=1;whiteSpace=wrap;fontSize=12;fontStyle=0;container=1;pointerEvents=0;collapsible=0;recursiveResize=0;shape=mxgraph.aws4.group;grIcon=mxgraph.aws4.group_aws_cloud_alt;strokeColor=#232F3E;fillColor=none;verticalAlign=top;align=left;spacingLeft=30;fontColor=#232F3E;dashed=0;rounded=1;" vertex="1" parent="VMMxi6mZExp3p79Hm0WI-1">
          <mxGeometry x="464" y="870" width="195" height="350" as="geometry" />
        </mxCell>
        <mxCell id="3qJKkSkCYxx4kdkI0v1F-1" value="" style="sketch=0;points=[[0,0,0],[0.25,0,0],[0.5,0,0],[0.75,0,0],[1,0,0],[0,1,0],[0.25,1,0],[0.5,1,0],[0.75,1,0],[1,1,0],[0,0.25,0],[0,0.5,0],[0,0.75,0],[1,0.25,0],[1,0.5,0],[1,0.75,0]];outlineConnect=0;fontColor=#232F3E;fillColor=#E7157B;strokeColor=#ffffff;dashed=0;verticalLabelPosition=bottom;verticalAlign=top;align=center;html=1;fontSize=12;fontStyle=0;aspect=fixed;shape=mxgraph.aws4.resourceIcon;resIcon=mxgraph.aws4.eventbridge;perimeterSpacing=5;" vertex="1" parent="VMMxi6mZExp3p79Hm0WI-2">
          <mxGeometry x="50.5" y="25" width="50" height="50" as="geometry" />
        </mxCell>
        <mxCell id="WRWKebSvX94300-B7fjs-15" style="edgeStyle=orthogonalEdgeStyle;rounded=0;orthogonalLoop=1;jettySize=auto;html=1;exitX=0.25;exitY=0;exitDx=0;exitDy=0;exitPerimeter=0;" edge="1" parent="VMMxi6mZExp3p79Hm0WI-2">
          <mxGeometry relative="1" as="geometry">
            <mxPoint x="70.5" y="272" as="sourcePoint" />
            <mxPoint x="70" y="205.5" as="targetPoint" />
            <Array as="points">
              <mxPoint x="70" y="239" />
              <mxPoint x="70" y="239" />
            </Array>
          </mxGeometry>
        </mxCell>
        <mxCell id="3qJKkSkCYxx4kdkI0v1F-2" value="" style="sketch=0;points=[[0,0,0,0,0],[0,0.25,0,0,0],[0,0.5,0,0,0],[0,0.75,0,0,0],[0,1,0,0,0],[0.25,0,0,0,0],[0.25,1,0,0,0],[0.33,0,0,0,0],[0.5,0,0,0,0],[0.5,1,0,0,0],[0.67,0,0,0,0],[0.75,0,0,0,0],[0.75,1,0,0,0],[1,0,0,0,0],[1,0.25,0,0,0],[1,0.5,0,0,0],[1,0.75,0,0,0],[1,1,0,0,0]];outlineConnect=0;fontColor=#232F3E;fillColor=#E7157B;strokeColor=#ffffff;dashed=0;verticalLabelPosition=bottom;verticalAlign=top;align=center;html=1;fontSize=12;fontStyle=0;aspect=fixed;shape=mxgraph.aws4.resourceIcon;resIcon=mxgraph.aws4.eventbridge;perimeterSpacing=5;" vertex="1" parent="VMMxi6mZExp3p79Hm0WI-2">
          <mxGeometry x="50.5" y="277" width="50" height="50" as="geometry" />
        </mxCell>
        <mxCell id="WRWKebSvX94300-B7fjs-0" value="2a. On reaching the lock time, the lambda is triggered" style="text;strokeColor=none;align=center;fillColor=none;html=1;verticalAlign=middle;whiteSpace=wrap;rounded=1;fontSize=8;" vertex="1" parent="VMMxi6mZExp3p79Hm0WI-2">
          <mxGeometry x="4" y="98" width="60" height="30" as="geometry" />
        </mxCell>
        <mxCell id="WRWKebSvX94300-B7fjs-4" value="2b. On reaching the unlock time, the lambda is triggered" style="text;strokeColor=none;align=center;fillColor=none;html=1;verticalAlign=middle;whiteSpace=wrap;rounded=1;fontSize=8;" vertex="1" parent="VMMxi6mZExp3p79Hm0WI-2">
          <mxGeometry x="4" y="224" width="60" height="30" as="geometry" />
        </mxCell>
        <mxCell id="WRWKebSvX94300-B7fjs-2" value="1. Users configure the deployment window" style="text;strokeColor=none;align=center;fillColor=none;html=1;verticalAlign=middle;whiteSpace=wrap;rounded=1;fontSize=8;" vertex="1" parent="VMMxi6mZExp3p79Hm0WI-2">
          <mxGeometry x="135" y="160.5" width="60" height="30" as="geometry" />
        </mxCell>
        <mxCell id="WRWKebSvX94300-B7fjs-17" style="edgeStyle=orthogonalEdgeStyle;rounded=0;orthogonalLoop=1;jettySize=auto;html=1;" edge="1" parent="VMMxi6mZExp3p79Hm0WI-2">
          <mxGeometry relative="1" as="geometry">
            <mxPoint x="85" y="205" as="sourcePoint" />
            <mxPoint x="85" y="272" as="targetPoint" />
            <Array as="points">
              <mxPoint x="85" y="205" />
            </Array>
          </mxGeometry>
        </mxCell>
        <mxCell id="VMMxi6mZExp3p79Hm0WI-3" value="" style="sketch=0;outlineConnect=0;fontColor=#232F3E;fillColor=#ED7100;strokeColor=#ffffff;dashed=0;verticalLabelPosition=bottom;verticalAlign=top;align=center;html=1;fontSize=12;fontStyle=0;aspect=fixed;shape=mxgraph.aws4.resourceIcon;resIcon=mxgraph.aws4.lambda;perimeterSpacing=5;points=[[0,0.33,0,0,0],[0,0.67,0,0,0],[0.33,1,0,0,0],[0.67,1,0,0,0]];rounded=1;" vertex="1" parent="VMMxi6mZExp3p79Hm0WI-2">
          <mxGeometry x="50.5" y="150.5" width="50" height="50" as="geometry" />
        </mxCell>
        <mxCell id="WRWKebSvX94300-B7fjs-23" style="edgeStyle=orthogonalEdgeStyle;rounded=0;orthogonalLoop=1;jettySize=auto;html=1;exitX=0.25;exitY=0;exitDx=0;exitDy=0;exitPerimeter=0;" edge="1" parent="VMMxi6mZExp3p79Hm0WI-2">
          <mxGeometry relative="1" as="geometry">
            <mxPoint x="68.12" y="147" as="sourcePoint" />
            <mxPoint x="67.62" y="80.5" as="targetPoint" />
            <Array as="points">
              <mxPoint x="67.62" y="114" />
              <mxPoint x="67.62" y="114" />
            </Array>
          </mxGeometry>
        </mxCell>
        <mxCell id="WRWKebSvX94300-B7fjs-24" style="edgeStyle=orthogonalEdgeStyle;rounded=0;orthogonalLoop=1;jettySize=auto;html=1;" edge="1" parent="VMMxi6mZExp3p79Hm0WI-2">
          <mxGeometry relative="1" as="geometry">
            <mxPoint x="82.62" y="80" as="sourcePoint" />
            <mxPoint x="82.62" y="147" as="targetPoint" />
            <Array as="points">
              <mxPoint x="82.62" y="80" />
            </Array>
          </mxGeometry>
        </mxCell>
        <mxCell id="WRWKebSvX94300-B7fjs-25" value="2. A unlock schedule is created for each repository" style="text;strokeColor=none;align=center;fillColor=none;html=1;verticalAlign=middle;whiteSpace=wrap;rounded=1;fontSize=8;" vertex="1" parent="VMMxi6mZExp3p79Hm0WI-2">
          <mxGeometry x="100.5" y="224" width="60" height="30" as="geometry" />
        </mxCell>
        <mxCell id="WRWKebSvX94300-B7fjs-26" value="3. A lock schedule is created for each repository" style="text;strokeColor=none;align=center;fillColor=none;html=1;verticalAlign=middle;whiteSpace=wrap;rounded=1;fontSize=8;" vertex="1" parent="VMMxi6mZExp3p79Hm0WI-2">
          <mxGeometry x="100.5" y="90" width="60" height="30" as="geometry" />
        </mxCell>
        <mxCell id="VMMxi6mZExp3p79Hm0WI-6" value="Github" style="points=[[0,0],[0.25,0],[0.5,0],[0.75,0],[1,0],[1,0.25],[1,0.5],[1,0.75],[1,1],[0.75,1],[0.5,1],[0.25,1],[0,1],[0,0.75],[0,0.5],[0,0.25]];outlineConnect=0;gradientColor=none;html=1;whiteSpace=wrap;fontSize=12;fontStyle=0;container=0;pointerEvents=0;collapsible=0;recursiveResize=0;shape=mxgraph.aws4.group;grIcon=mxgraph.aws4.group_aws_cloud_alt;strokeColor=#232F3E;fillColor=none;verticalAlign=top;align=left;spacingLeft=30;fontColor=#232F3E;dashed=0;rounded=1;" vertex="1" parent="VMMxi6mZExp3p79Hm0WI-1">
          <mxGeometry x="173" y="870" width="251" height="350" as="geometry" />
        </mxCell>
        <mxCell id="VMMxi6mZExp3p79Hm0WI-9" value="" style="shape=image;verticalLabelPosition=bottom;verticalAlign=top;imageAspect=0;aspect=fixed;image=data:image/svg+xml,PHN2ZyB4bWxucz0iaHR0cDovL3d3dy53My5vcmcvMjAwMC9zdmciIHZpZXdCb3g9IjAgMCAxMjggMTI4Ij48cGF0aCBkPSJNMTI0LjczNyA1OC4zNzhMNjkuNjIxIDMuMjY0Yy0zLjE3Mi0zLjE3NC04LjMyLTMuMTc0LTExLjQ5NyAwTDQ2LjY4IDE0LjcxbDE0LjUxOCAxNC41MThjMy4zNzUtMS4xMzkgNy4yNDMtLjM3NSA5LjkzMiAyLjMxNCAyLjcwMyAyLjcwNiAzLjQ2MSA2LjYwNyAyLjI5NCA5Ljk5M2wxMy45OTIgMTMuOTkzYzMuMzg1LTEuMTY3IDcuMjkyLS40MTMgOS45OTQgMi4yOTUgMy43OCAzLjc3NyAzLjc4IDkuOSAwIDEzLjY3OWE5LjY3MyA5LjY3MyAwIDAxLTEzLjY4MyAwIDkuNjc3IDkuNjc3IDAgMDEtMi4xMDUtMTAuNTIxTDY4LjU3NCA0Ny45MzNsLS4wMDIgMzQuMzQxYTkuNzA4IDkuNzA4IDAgMDEyLjU1OSAxLjgyOGMzLjc3OCAzLjc3NyAzLjc3OCA5Ljg5OCAwIDEzLjY4My0zLjc3OSAzLjc3Ny05LjkwNCAzLjc3Ny0xMy42NzkgMC0zLjc3OC0zLjc4NC0zLjc3OC05LjkwNSAwLTEzLjY4M2E5LjY1IDkuNjUgMCAwMTMuMTY3LTIuMTFWNDcuMzMzYTkuNTgxIDkuNTgxIDAgMDEtMy4xNjctMi4xMTFjLTIuODYyLTIuODYtMy41NTEtNy4wNi0yLjA4My0xMC41NzZMNDEuMDU2IDIwLjMzMyAzLjI2NCA1OC4xMjNhOC4xMzMgOC4xMzMgMCAwMDAgMTEuNWw1NS4xMTcgNTUuMTE0YzMuMTc0IDMuMTc0IDguMzIgMy4xNzQgMTEuNDk5IDBsNTQuODU4LTU0Ljg1OGE4LjEzNSA4LjEzNSAwIDAwLS4wMDEtMTEuNTAxeiIgZmlsbD0iI0YzNEYyOSIvPjwvc3ZnPg==;perimeterSpacing=5;rounded=1;" vertex="1" parent="VMMxi6mZExp3p79Hm0WI-1">
          <mxGeometry x="230" y="1021" width="50" height="50" as="geometry" />
        </mxCell>
        <mxCell id="3qJKkSkCYxx4kdkI0v1F-0" style="edgeStyle=orthogonalEdgeStyle;rounded=0;orthogonalLoop=1;jettySize=auto;html=1;exitX=0;exitY=0.5;exitDx=0;exitDy=0;" edge="1" parent="VMMxi6mZExp3p79Hm0WI-1" source="VMMxi6mZExp3p79Hm0WI-15" target="VMMxi6mZExp3p79Hm0WI-9">
          <mxGeometry relative="1" as="geometry" />
        </mxCell>
        <mxCell id="VMMxi6mZExp3p79Hm0WI-15" value="" style="shape=image;verticalLabelPosition=bottom;verticalAlign=top;imageAspect=0;aspect=fixed;image=data:image/svg+xml,PHN2ZyB4bWxucz0iaHR0cDovL3d3dy53My5vcmcvMjAwMC9zdmciIHZpZXdCb3g9IjAgMCAxMjggMTI4Ij48ZyBmaWxsPSIjMTgxNjE2Ij48cGF0aCBkPSJNNjQgNS4xMDNjLTMzLjM0NyAwLTYwLjM4OCAyNy4wMzUtNjAuMzg4IDYwLjM4OCAwIDI2LjY4MiAxNy4zMDMgNDkuMzE3IDQxLjI5NyA1Ny4zMDMgMy4wMTcuNTYgNC4xMjUtMS4zMSA0LjEyNS0yLjkwNSAwLTEuNDQtLjA1Ni02LjE5Ny0uMDgyLTExLjI0My0xNi44IDMuNjUzLTIwLjM0NS03LjEyNS0yMC4zNDUtNy4xMjUtMi43NDctNi45OC02LjcwNS04LjgzNi02LjcwNS04LjgzNi01LjQ4LTMuNzQ4LjQxMy0zLjY3LjQxMy0zLjY3IDYuMDYzLjQyNSA5LjI1NyA2LjIyMyA5LjI1NyA2LjIyMyA1LjM4NiA5LjIzIDE0LjEyNyA2LjU2MiAxNy41NzMgNS4wMi41NDItMy45MDMgMi4xMDctNi41NjggMy44MzQtOC4wNzYtMTMuNDEzLTEuNTI1LTI3LjUxNC02LjcwNC0yNy41MTQtMjkuODQzIDAtNi41OTMgMi4zNi0xMS45OCA2LjIyMy0xNi4yMS0uNjI4LTEuNTItMi42OTUtNy42NjIuNTg0LTE1Ljk4IDAgMCA1LjA3LTEuNjIzIDE2LjYxIDYuMTlDNTMuNyAzNSA1OC44NjcgMzQuMzI3IDY0IDM0LjMwNGM1LjEzLjAyMyAxMC4zLjY5NCAxNS4xMjcgMi4wMzMgMTEuNTI2LTcuODEzIDE2LjU5LTYuMTkgMTYuNTktNi4xOSAzLjI4NyA4LjMxNyAxLjIyIDE0LjQ2LjU5MyAxNS45OCAzLjg3MiA0LjIzIDYuMjE1IDkuNjE3IDYuMjE1IDE2LjIxIDAgMjMuMTk0LTE0LjEyNyAyOC4zLTI3LjU3NCAyOS43OTYgMi4xNjcgMS44NzQgNC4wOTcgNS41NSA0LjA5NyAxMS4xODMgMCA4LjA4LS4wNyAxNC41ODMtLjA3IDE2LjU3MiAwIDEuNjA3IDEuMDg4IDMuNDkgNC4xNDggMi44OTcgMjMuOTgtNy45OTQgNDEuMjYzLTMwLjYyMiA0MS4yNjMtNTcuMjk0QzEyNC4zODggMzIuMTQgOTcuMzUgNS4xMDQgNjQgNS4xMDR6IiBjbGlwLXJ1bGU9ImV2ZW5vZGQiIGZpbGwtcnVsZT0iZXZlbm9kZCIvPjxwYXRoIGQ9Ik0yNi40ODQgOTEuODA2Yy0uMTMzLjMtLjYwNS4zOS0xLjAzNS4xODUtLjQ0LS4xOTYtLjY4NS0uNjA1LS41NDMtLjkwNi4xMy0uMzEuNjAzLS4zOTUgMS4wNC0uMTg4LjQ0LjE5Ny42OS42MS41MzcuOTF6bTIuNDQ2IDIuNzI5Yy0uMjg3LjI2Ny0uODUuMTQzLTEuMjMyLS4yOC0uMzk2LS40Mi0uNDctLjk4My0uMTc3LTEuMjU0LjI5OC0uMjY2Ljg0NC0uMTQgMS4yNC4yOC4zOTQuNDI2LjQ3Mi45ODQuMTcgMS4yNTV6TTMxLjMxMiA5OC4wMTJjLS4zNy4yNTgtLjk3Ni4wMTctMS4zNS0uNTItLjM3LS41MzgtLjM3LTEuMTgzLjAxLTEuNDQuMzczLS4yNTguOTctLjAyNSAxLjM1LjUwNy4zNjguNTQ1LjM2OCAxLjE5LS4wMSAxLjQ1MnptMy4yNjEgMy4zNjFjLS4zMy4zNjUtMS4wMzYuMjY3LTEuNTUyLS4yMy0uNTI3LS40ODctLjY3NC0xLjE4LS4zNDMtMS41NDQuMzM2LS4zNjYgMS4wNDUtLjI2NCAxLjU2NC4yMy41MjcuNDg2LjY4NiAxLjE4LjMzMyAxLjU0M3ptNC41IDEuOTUxYy0uMTQ3LjQ3My0uODI1LjY4OC0xLjUxLjQ4Ni0uNjgzLS4yMDctMS4xMy0uNzYtLjk5LTEuMjM4LjE0LS40NzcuODIzLS43IDEuNTEyLS40ODUuNjgzLjIwNiAxLjEzLjc1Ni45ODggMS4yMzd6bTQuOTQzLjM2MWMuMDE3LjQ5OC0uNTYzLjkxLTEuMjguOTItLjcyMy4wMTctMS4zMDgtLjM4Ny0xLjMxNS0uODc3IDAtLjUwMy41NjgtLjkxIDEuMjktLjkyNC43MTctLjAxMyAxLjMwNi4zODcgMS4zMDYuODh6bTQuNTk4LS43ODJjLjA4Ni40ODUtLjQxMy45ODQtMS4xMjYgMS4xMTctLjcuMTMtMS4zNS0uMTcyLTEuNDQtLjY1My0uMDg2LS40OTguNDIyLS45OTcgMS4xMjItMS4xMjYuNzE0LS4xMjMgMS4zNTQuMTcgMS40NDQuNjYzem0wIDAiLz48L2c+PC9zdmc+;perimeterSpacing=5;rounded=1;" vertex="1" parent="VMMxi6mZExp3p79Hm0WI-1">
          <mxGeometry x="311" y="1020.5" width="50" height="50" as="geometry" />
        </mxCell>
        <mxCell id="VMMxi6mZExp3p79Hm0WI-23" value="Administrators" style="sketch=0;outlineConnect=0;fontColor=#232F3E;gradientColor=none;fillColor=#232F3D;strokeColor=none;dashed=0;verticalLabelPosition=bottom;verticalAlign=top;align=center;html=1;fontSize=12;fontStyle=0;aspect=fixed;pointerEvents=1;shape=mxgraph.aws4.users;perimeterSpacing=5;rounded=1;" vertex="1" parent="VMMxi6mZExp3p79Hm0WI-1">
          <mxGeometry x="694" y="1020" width="50" height="50" as="geometry" />
        </mxCell>
        <mxCell id="VMMxi6mZExp3p79Hm0WI-29" value="3. Github is instructed to lock the branch" style="text;strokeColor=none;align=center;fillColor=none;html=1;verticalAlign=middle;whiteSpace=wrap;rounded=1;fontSize=8;" vertex="1" parent="VMMxi6mZExp3p79Hm0WI-1">
          <mxGeometry x="361" y="1001" width="60" height="30" as="geometry" />
        </mxCell>
        <mxCell id="3qJKkSkCYxx4kdkI0v1F-5" style="edgeStyle=orthogonalEdgeStyle;rounded=0;orthogonalLoop=1;jettySize=auto;html=1;entryX=1;entryY=0.5;entryDx=0;entryDy=0;" edge="1" parent="VMMxi6mZExp3p79Hm0WI-1" source="VMMxi6mZExp3p79Hm0WI-3" target="VMMxi6mZExp3p79Hm0WI-15">
          <mxGeometry relative="1" as="geometry" />
        </mxCell>
        <mxCell id="WRWKebSvX94300-B7fjs-6" style="edgeStyle=orthogonalEdgeStyle;rounded=0;orthogonalLoop=1;jettySize=auto;html=1;" edge="1" parent="VMMxi6mZExp3p79Hm0WI-1" source="eUecStvPA_0ZM55U0KaS-0" target="VMMxi6mZExp3p79Hm0WI-9">
          <mxGeometry relative="1" as="geometry" />
        </mxCell>
        <mxCell id="eUecStvPA_0ZM55U0KaS-0" value="Developers" style="sketch=0;outlineConnect=0;fontColor=#232F3E;gradientColor=none;fillColor=#232F3D;strokeColor=none;dashed=0;verticalLabelPosition=bottom;verticalAlign=top;align=center;html=1;fontSize=12;fontStyle=0;aspect=fixed;pointerEvents=1;shape=mxgraph.aws4.users;perimeterSpacing=5;rounded=1;" vertex="1" parent="VMMxi6mZExp3p79Hm0WI-1">
          <mxGeometry x="38" y="1020" width="50" height="50" as="geometry" />
        </mxCell>
        <mxCell id="WRWKebSvX94300-B7fjs-5" value="" style="edgeStyle=orthogonalEdgeStyle;rounded=0;orthogonalLoop=1;jettySize=auto;html=1;" edge="1" parent="VMMxi6mZExp3p79Hm0WI-1" source="VMMxi6mZExp3p79Hm0WI-23" target="VMMxi6mZExp3p79Hm0WI-3">
          <mxGeometry relative="1" as="geometry">
            <mxPoint x="689" y="1045" as="sourcePoint" />
            <mxPoint x="650" y="1045" as="targetPoint" />
          </mxGeometry>
        </mxCell>
        <mxCell id="WRWKebSvX94300-B7fjs-7" value="Users try to merge or commit to default branch" style="text;strokeColor=none;align=center;fillColor=none;html=1;verticalAlign=middle;whiteSpace=wrap;rounded=1;fontSize=8;" vertex="1" parent="VMMxi6mZExp3p79Hm0WI-1">
          <mxGeometry x="110" y="1031" width="60" height="30" as="geometry" />
        </mxCell>
        <mxCell id="WRWKebSvX94300-B7fjs-8" value="If the branch is locked, pull-requests can&#39;t be merged" style="text;strokeColor=none;align=center;fillColor=none;html=1;verticalAlign=middle;whiteSpace=wrap;rounded=1;fontSize=8;" vertex="1" parent="VMMxi6mZExp3p79Hm0WI-1">
          <mxGeometry x="180" y="994" width="60" height="30" as="geometry" />
        </mxCell>
        <mxCell id="WRWKebSvX94300-B7fjs-9" value="4. The branch is marked as readonly" style="text;strokeColor=none;align=center;fillColor=none;html=1;verticalAlign=middle;whiteSpace=wrap;rounded=1;fontSize=8;" vertex="1" parent="VMMxi6mZExp3p79Hm0WI-1">
          <mxGeometry x="262" y="994" width="60" height="30" as="geometry" />
        </mxCell>
        <mxCell id="WRWKebSvX94300-B7fjs-28" value="3. Github is instructed to unlock the branch" style="text;strokeColor=none;align=center;fillColor=none;html=1;verticalAlign=middle;whiteSpace=wrap;rounded=1;fontSize=8;" vertex="1" parent="VMMxi6mZExp3p79Hm0WI-1">
          <mxGeometry x="361" y="1059" width="60" height="30" as="geometry" />
        </mxCell>
        <mxCell id="WRWKebSvX94300-B7fjs-29" value="4. The branch is marked as writable" style="text;strokeColor=none;align=center;fillColor=none;html=1;verticalAlign=middle;whiteSpace=wrap;rounded=1;fontSize=8;" vertex="1" parent="VMMxi6mZExp3p79Hm0WI-1">
          <mxGeometry x="262" y="1070" width="60" height="30" as="geometry" />
        </mxCell>
        <mxCell id="WRWKebSvX94300-B7fjs-30" value="If the branch is not locked, pull-requests can be merged" style="text;strokeColor=none;align=center;fillColor=none;html=1;verticalAlign=middle;whiteSpace=wrap;rounded=1;fontSize=8;" vertex="1" parent="VMMxi6mZExp3p79Hm0WI-1">
          <mxGeometry x="176" y="1067" width="60" height="30" as="geometry" />
        </mxCell>
      </root>
    </mxGraphModel>
  </diagram>
</mxfile>
